<?xml version="1.0" encoding="iso-8859-1"?>
<!-- Uploaded to: SVG Repo, www.svgrepo.com, Generator: SVG Repo Mixer Tools -->
<svg version="1.1" id="Layer_1" xmlns="http://www.w3.org/2000/svg" xmlns:xlink="http://www.w3.org/1999/xlink" 
	 viewBox="0 0 512 512" xml:space="preserve">
<path style="fill:#E4EAF6;" d="M370.759,503.172H141.241V4.414c0-2.438,1.976-4.414,4.414-4.414h220.69
	c2.438,0,4.414,1.976,4.414,4.414V503.172z"/>
<g>
	<rect x="141.24" y="450.21" style="fill:#C7CFE2;" width="229.52" height="52.966"/>
	<rect x="141.24" y="414.9" style="fill:#C7CFE2;" width="229.52" height="17.655"/>
	<rect x="141.24" y="379.59" style="fill:#C7CFE2;" width="229.52" height="17.655"/>
	<rect x="141.24" y="344.28" style="fill:#C7CFE2;" width="229.52" height="17.655"/>
	<rect x="141.24" y="308.97" style="fill:#C7CFE2;" width="229.52" height="17.655"/>
	<rect x="141.24" y="273.65" style="fill:#C7CFE2;" width="229.52" height="17.655"/>
	<rect x="141.24" y="238.34" style="fill:#C7CFE2;" width="229.52" height="17.655"/>
	<rect x="141.24" y="203.03" style="fill:#C7CFE2;" width="229.52" height="17.655"/>
	<rect x="141.24" y="167.72" style="fill:#C7CFE2;" width="229.52" height="17.655"/>
	<rect x="141.24" y="132.41" style="fill:#C7CFE2;" width="229.52" height="17.655"/>
	<rect x="141.24" y="97.1" style="fill:#C7CFE2;" width="229.52" height="17.655"/>
	<rect x="141.24" y="61.793" style="fill:#C7CFE2;" width="229.52" height="17.655"/>
	<rect x="141.24" y="26.483" style="fill:#C7CFE2;" width="229.52" height="17.655"/>
</g>
<g>
	<path style="fill:#A0D2F0;" d="M225.103,44.138h-83.862V26.483h83.862c2.438,0,4.414,1.976,4.414,4.414v8.828
		C229.517,42.162,227.541,44.138,225.103,44.138z"/>
	<path style="fill:#A0D2F0;" d="M295.724,44.138h-44.138c-2.438,0-4.414-1.976-4.414-4.414v-8.828c0-2.438,1.976-4.414,4.414-4.414
		h44.138c2.438,0,4.414,1.976,4.414,4.414v8.828C300.138,42.162,298.162,44.138,295.724,44.138z"/>
	<path style="fill:#A0D2F0;" d="M370.759,44.138h-48.552c-2.438,0-4.414-1.976-4.414-4.414v-8.828c0-2.438,1.976-4.414,4.414-4.414
		h48.552V44.138z"/>
</g>
<g>
	<rect x="194.21" y="26.483" style="fill:#87BEE1;" width="17.655" height="17.655"/>
	<rect x="264.83" y="26.483" style="fill:#87BEE1;" width="17.655" height="17.655"/>
	<rect x="335.45" y="26.483" style="fill:#87BEE1;" width="17.655" height="17.655"/>
	<rect x="158.9" y="26.483" style="fill:#87BEE1;" width="17.655" height="17.655"/>
</g>
<g>
	<path style="fill:#A0D2F0;" d="M225.103,79.448h-83.862V61.793h83.862c2.438,0,4.414,1.976,4.414,4.414v8.828
		C229.517,77.472,227.541,79.448,225.103,79.448z"/>
	<path style="fill:#A0D2F0;" d="M295.724,79.448h-44.138c-2.438,0-4.414-1.976-4.414-4.414v-8.828c0-2.438,1.976-4.414,4.414-4.414
		h44.138c2.438,0,4.414,1.976,4.414,4.414v8.828C300.138,77.472,298.162,79.448,295.724,79.448z"/>
	<path style="fill:#A0D2F0;" d="M370.759,79.448h-48.552c-2.438,0-4.414-1.976-4.414-4.414v-8.828c0-2.438,1.976-4.414,4.414-4.414
		h48.552V79.448z"/>
</g>
<g>
	<rect x="194.21" y="61.793" style="fill:#87BEE1;" width="17.655" height="17.655"/>
	<rect x="264.83" y="61.793" style="fill:#87BEE1;" width="17.655" height="17.655"/>
	<rect x="335.45" y="61.793" style="fill:#87BEE1;" width="17.655" height="17.655"/>
	<rect x="158.9" y="61.793" style="fill:#87BEE1;" width="17.655" height="17.655"/>
</g>
<g>
	<path style="fill:#A0D2F0;" d="M225.103,114.759h-83.862V97.103h83.862c2.438,0,4.414,1.976,4.414,4.414v8.828
		C229.517,112.782,227.541,114.759,225.103,114.759z"/>
	<path style="fill:#A0D2F0;" d="M295.724,114.759h-44.138c-2.438,0-4.414-1.976-4.414-4.414v-8.828c0-2.438,1.976-4.414,4.414-4.414
		h44.138c2.438,0,4.414,1.976,4.414,4.414v8.828C300.138,112.782,298.162,114.759,295.724,114.759z"/>
	<path style="fill:#A0D2F0;" d="M370.759,114.759h-48.552c-2.438,0-4.414-1.976-4.414-4.414v-8.828c0-2.438,1.976-4.414,4.414-4.414
		h48.552V114.759z"/>
</g>
<g>
	<rect x="194.21" y="97.1" style="fill:#87BEE1;" width="17.655" height="17.655"/>
	<rect x="264.83" y="97.1" style="fill:#87BEE1;" width="17.655" height="17.655"/>
	<rect x="335.45" y="97.1" style="fill:#87BEE1;" width="17.655" height="17.655"/>
	<rect x="158.9" y="97.1" style="fill:#87BEE1;" width="17.655" height="17.655"/>
</g>
<g>
	<path style="fill:#A0D2F0;" d="M225.103,150.069h-83.862v-17.655h83.862c2.438,0,4.414,1.976,4.414,4.414v8.828
		C229.517,148.093,227.541,150.069,225.103,150.069z"/>
	<path style="fill:#A0D2F0;" d="M295.724,150.069h-44.138c-2.438,0-4.414-1.976-4.414-4.414v-8.828c0-2.438,1.976-4.414,4.414-4.414
		h44.138c2.438,0,4.414,1.976,4.414,4.414v8.828C300.138,148.093,298.162,150.069,295.724,150.069z"/>
	<path style="fill:#A0D2F0;" d="M370.759,150.069h-48.552c-2.438,0-4.414-1.976-4.414-4.414v-8.828c0-2.438,1.976-4.414,4.414-4.414
		h48.552V150.069z"/>
</g>
<g>
	<rect x="194.21" y="132.41" style="fill:#87BEE1;" width="17.655" height="17.655"/>
	<rect x="264.83" y="132.41" style="fill:#87BEE1;" width="17.655" height="17.655"/>
	<rect x="335.45" y="132.41" style="fill:#87BEE1;" width="17.655" height="17.655"/>
	<rect x="158.9" y="132.41" style="fill:#87BEE1;" width="17.655" height="17.655"/>
</g>
<g>
	<path style="fill:#A0D2F0;" d="M225.103,185.379h-83.862v-17.655h83.862c2.438,0,4.414,1.976,4.414,4.414v8.828
		C229.517,183.403,227.541,185.379,225.103,185.379z"/>
	<path style="fill:#A0D2F0;" d="M295.724,185.379h-44.138c-2.438,0-4.414-1.976-4.414-4.414v-8.828c0-2.438,1.976-4.414,4.414-4.414
		h44.138c2.438,0,4.414,1.976,4.414,4.414v8.828C300.138,183.403,298.162,185.379,295.724,185.379z"/>
	<path style="fill:#A0D2F0;" d="M370.759,185.379h-48.552c-2.438,0-4.414-1.976-4.414-4.414v-8.828c0-2.438,1.976-4.414,4.414-4.414
		h48.552V185.379z"/>
</g>
<g>
	<rect x="194.21" y="167.72" style="fill:#87BEE1;" width="17.655" height="17.655"/>
	<rect x="264.83" y="167.72" style="fill:#87BEE1;" width="17.655" height="17.655"/>
	<rect x="335.45" y="167.72" style="fill:#87BEE1;" width="17.655" height="17.655"/>
	<rect x="158.9" y="167.72" style="fill:#87BEE1;" width="17.655" height="17.655"/>
</g>
<g>
	<path style="fill:#A0D2F0;" d="M225.103,220.69h-83.862v-17.655h83.862c2.438,0,4.414,1.976,4.414,4.414v8.828
		C229.517,218.713,227.541,220.69,225.103,220.69z"/>
	<path style="fill:#A0D2F0;" d="M295.724,220.69h-44.138c-2.438,0-4.414-1.976-4.414-4.414v-8.828c0-2.438,1.976-4.414,4.414-4.414
		h44.138c2.438,0,4.414,1.976,4.414,4.414v8.828C300.138,218.713,298.162,220.69,295.724,220.69z"/>
	<path style="fill:#A0D2F0;" d="M370.759,220.69h-48.552c-2.438,0-4.414-1.976-4.414-4.414v-8.828c0-2.438,1.976-4.414,4.414-4.414
		h48.552V220.69z"/>
</g>
<g>
	<rect x="194.21" y="203.03" style="fill:#87BEE1;" width="17.655" height="17.655"/>
	<rect x="264.83" y="203.03" style="fill:#87BEE1;" width="17.655" height="17.655"/>
	<rect x="335.45" y="203.03" style="fill:#87BEE1;" width="17.655" height="17.655"/>
	<rect x="158.9" y="203.03" style="fill:#87BEE1;" width="17.655" height="17.655"/>
</g>
<g>
	<path style="fill:#A0D2F0;" d="M225.103,256h-83.862v-17.655h83.862c2.438,0,4.414,1.976,4.414,4.414v8.828
		C229.517,254.024,227.541,256,225.103,256z"/>
	<path style="fill:#A0D2F0;" d="M295.724,256h-44.138c-2.438,0-4.414-1.976-4.414-4.414v-8.828c0-2.438,1.976-4.414,4.414-4.414
		h44.138c2.438,0,4.414,1.976,4.414,4.414v8.828C300.138,254.024,298.162,256,295.724,256z"/>
	<path style="fill:#A0D2F0;" d="M370.759,256h-48.552c-2.438,0-4.414-1.976-4.414-4.414v-8.828c0-2.438,1.976-4.414,4.414-4.414
		h48.552V256z"/>
</g>
<g>
	<rect x="194.21" y="238.34" style="fill:#87BEE1;" width="17.655" height="17.655"/>
	<rect x="264.83" y="238.34" style="fill:#87BEE1;" width="17.655" height="17.655"/>
	<rect x="335.45" y="238.34" style="fill:#87BEE1;" width="17.655" height="17.655"/>
	<rect x="158.9" y="238.34" style="fill:#87BEE1;" width="17.655" height="17.655"/>
</g>
<g>
	<path style="fill:#A0D2F0;" d="M225.103,291.31h-83.862v-17.655h83.862c2.438,0,4.414,1.976,4.414,4.414v8.828
		C229.517,289.334,227.541,291.31,225.103,291.31z"/>
	<path style="fill:#A0D2F0;" d="M295.724,291.31h-44.138c-2.438,0-4.414-1.976-4.414-4.414v-8.828c0-2.438,1.976-4.414,4.414-4.414
		h44.138c2.438,0,4.414,1.976,4.414,4.414v8.828C300.138,289.334,298.162,291.31,295.724,291.31z"/>
	<path style="fill:#A0D2F0;" d="M370.759,291.31h-48.552c-2.438,0-4.414-1.976-4.414-4.414v-8.828c0-2.438,1.976-4.414,4.414-4.414
		h48.552V291.31z"/>
</g>
<g>
	<rect x="194.21" y="273.65" style="fill:#87BEE1;" width="17.655" height="17.655"/>
	<rect x="264.83" y="273.65" style="fill:#87BEE1;" width="17.655" height="17.655"/>
	<rect x="335.45" y="273.65" style="fill:#87BEE1;" width="17.655" height="17.655"/>
	<rect x="158.9" y="273.65" style="fill:#87BEE1;" width="17.655" height="17.655"/>
</g>
<g>
	<path style="fill:#A0D2F0;" d="M225.103,326.621h-83.862v-17.655h83.862c2.438,0,4.414,1.976,4.414,4.414v8.828
		C229.517,324.644,227.541,326.621,225.103,326.621z"/>
	<path style="fill:#A0D2F0;" d="M295.724,326.621h-44.138c-2.438,0-4.414-1.976-4.414-4.414v-8.828c0-2.438,1.976-4.414,4.414-4.414
		h44.138c2.438,0,4.414,1.976,4.414,4.414v8.828C300.138,324.644,298.162,326.621,295.724,326.621z"/>
	<path style="fill:#A0D2F0;" d="M370.759,326.621h-48.552c-2.438,0-4.414-1.976-4.414-4.414v-8.828c0-2.438,1.976-4.414,4.414-4.414
		h48.552V326.621z"/>
</g>
<g>
	<rect x="194.21" y="308.97" style="fill:#87BEE1;" width="17.655" height="17.655"/>
	<rect x="264.83" y="308.97" style="fill:#87BEE1;" width="17.655" height="17.655"/>
	<rect x="335.45" y="308.97" style="fill:#87BEE1;" width="17.655" height="17.655"/>
	<rect x="158.9" y="308.97" style="fill:#87BEE1;" width="17.655" height="17.655"/>
</g>
<g>
	<path style="fill:#A0D2F0;" d="M225.103,361.931h-83.862v-17.655h83.862c2.438,0,4.414,1.976,4.414,4.414v8.828
		C229.517,359.955,227.541,361.931,225.103,361.931z"/>
	<path style="fill:#A0D2F0;" d="M295.724,361.931h-44.138c-2.438,0-4.414-1.976-4.414-4.414v-8.828c0-2.438,1.976-4.414,4.414-4.414
		h44.138c2.438,0,4.414,1.976,4.414,4.414v8.828C300.138,359.955,298.162,361.931,295.724,361.931z"/>
	<path style="fill:#A0D2F0;" d="M370.759,361.931h-48.552c-2.438,0-4.414-1.976-4.414-4.414v-8.828c0-2.438,1.976-4.414,4.414-4.414
		h48.552V361.931z"/>
</g>
<g>
	<rect x="194.21" y="344.28" style="fill:#87BEE1;" width="17.655" height="17.655"/>
	<rect x="264.83" y="344.28" style="fill:#87BEE1;" width="17.655" height="17.655"/>
	<rect x="335.45" y="344.28" style="fill:#87BEE1;" width="17.655" height="17.655"/>
	<rect x="158.9" y="344.28" style="fill:#87BEE1;" width="17.655" height="17.655"/>
</g>
<g>
	<path style="fill:#A0D2F0;" d="M225.103,397.241h-83.862v-17.655h83.862c2.438,0,4.414,1.976,4.414,4.414v8.828
		C229.517,395.265,227.541,397.241,225.103,397.241z"/>
	<path style="fill:#A0D2F0;" d="M295.724,397.241h-44.138c-2.438,0-4.414-1.976-4.414-4.414V384c0-2.438,1.976-4.414,4.414-4.414
		h44.138c2.438,0,4.414,1.976,4.414,4.414v8.828C300.138,395.265,298.162,397.241,295.724,397.241z"/>
	<path style="fill:#A0D2F0;" d="M370.759,397.241h-48.552c-2.438,0-4.414-1.976-4.414-4.414V384c0-2.438,1.976-4.414,4.414-4.414
		h48.552V397.241z"/>
</g>
<g>
	<rect x="194.21" y="379.59" style="fill:#87BEE1;" width="17.655" height="17.655"/>
	<rect x="264.83" y="379.59" style="fill:#87BEE1;" width="17.655" height="17.655"/>
	<rect x="335.45" y="379.59" style="fill:#87BEE1;" width="17.655" height="17.655"/>
	<rect x="158.9" y="379.59" style="fill:#87BEE1;" width="17.655" height="17.655"/>
</g>
<g>
	<path style="fill:#A0D2F0;" d="M225.103,432.552h-83.862v-17.655h83.862c2.438,0,4.414,1.976,4.414,4.414v8.828
		C229.517,430.575,227.541,432.552,225.103,432.552z"/>
	<path style="fill:#A0D2F0;" d="M295.724,432.552h-44.138c-2.438,0-4.414-1.976-4.414-4.414v-8.828c0-2.438,1.976-4.414,4.414-4.414
		h44.138c2.438,0,4.414,1.976,4.414,4.414v8.828C300.138,430.575,298.162,432.552,295.724,432.552z"/>
	<path style="fill:#A0D2F0;" d="M370.759,432.552h-48.552c-2.438,0-4.414-1.976-4.414-4.414v-8.828c0-2.438,1.976-4.414,4.414-4.414
		h48.552V432.552z"/>
</g>
<g>
	<rect x="194.21" y="414.9" style="fill:#87BEE1;" width="17.655" height="17.655"/>
	<rect x="264.83" y="414.9" style="fill:#87BEE1;" width="17.655" height="17.655"/>
	<rect x="335.45" y="414.9" style="fill:#87BEE1;" width="17.655" height="17.655"/>
	<rect x="158.9" y="414.9" style="fill:#87BEE1;" width="17.655" height="17.655"/>
</g>
<g>
	<path style="fill:#A0D2F0;" d="M225.103,503.172h-83.862v-52.966h83.862c2.438,0,4.414,1.976,4.414,4.414v44.138
		C229.517,501.196,227.541,503.172,225.103,503.172z"/>
	<path style="fill:#A0D2F0;" d="M295.724,503.172h-44.138c-2.438,0-4.414-1.976-4.414-4.414V454.62c0-2.438,1.976-4.414,4.414-4.414
		h44.138c2.438,0,4.414,1.976,4.414,4.414v44.138C300.138,501.196,298.162,503.172,295.724,503.172z"/>
	<path style="fill:#A0D2F0;" d="M370.759,503.172h-48.552c-2.438,0-4.414-1.976-4.414-4.414V454.62c0-2.438,1.976-4.414,4.414-4.414
		h48.552V503.172z"/>
</g>
<g>
	<rect x="194.21" y="450.21" style="fill:#87BEE1;" width="17.655" height="52.966"/>
	<rect x="264.83" y="450.21" style="fill:#87BEE1;" width="17.655" height="52.966"/>
	<rect x="335.45" y="450.21" style="fill:#87BEE1;" width="17.655" height="52.966"/>
	<rect x="158.9" y="450.21" style="fill:#87BEE1;" width="17.655" height="52.966"/>
</g>
<path style="fill:#8F96AC;" d="M384,512H128c-2.438,0-4.414-1.976-4.414-4.414v-8.828c0-2.438,1.976-4.414,4.414-4.414h256
	c2.438,0,4.414,1.976,4.414,4.414v8.828C388.414,510.024,386.438,512,384,512z"/>
</svg>